# xmcd
#
# Track frame offsets: 
#        150
#        9737
#        20169
#        31772
#        44452
#        56714
#        69034
#        81158
#        92822
#        104886
#        117444
#        129230
#        141010
#        152547
#        162177
#        174941
#        186121
#        197399
#        208489
#        218478
#        229688
#        240452
#        250077
#        258616
#        267417
#        277086
#        286920
#        296963
#        307470
#        318025
#        333408
#        341725
#
# Disc length: 4706 seconds
#
# Revision: 1
# Processed by: cddbd v1.5.2PL0 Copyright (c) Steve Scherf et al.
# Submitted via: ExactAudioCopyFreeDBPlugin 1.0
#
DISCID=e1126020
DTITLE=Various Artist - Voodoo Voodoo: Feisty Fifties Females (Disc3)
DYEAR=2014
DGENRE=R&B
TTITLE0=Chubby Newsom - When Are You Comin'
TTITLE1=Big Maybelle - Rock House
TTITLE2=Annisteen Allen - My Baby Keeps Rollin'
TTITLE3=Marie Adams - Ain't Car Crazy
TTITLE4=Helen Humes - Woojamacooja
TTITLE5=Anita Tucker - Hop, Skip And Jump
TTITLE6=Camille Howard - Rock 'n' Roll Mama
TTITLE7=Peggy Lee - Every Night
TTITLE8=Little Esther - If It's News To You
TTITLE9=Willie Mae Thornton - Just Like A Dog (Barking Up The Wrong Tr
TTITLE9=ee)
TTITLE10=Fay Simmons - Hangin' Around
TTITLE11=Varetta Dillard - Promise Mr Thomas
TTITLE12=Ruth Brown - Smooth Operator
TTITLE13=Patti Jerome - No Mama - No Papa
TTITLE14=Linda Hopkins - My Loving Baby
TTITLE15=Beverly Wright - Shake Till I'm Shook
TTITLE16=Lula Reed - Sick And Tired
TTITLE17=Gloria Lynn - Cool Daddy
TTITLE18=Pearl Galloway - Get Wit It
TTITLE19=Bunny Paul - Watcha Gonna Do
TTITLE20=Vikki Nelson - Just One More Smile
TTITLE21=Linda Hopkins - Rock And Roll Blues
TTITLE22=Wynona Carr - Nursery Rhyme Rock
TTITLE23=Lillian Briggs - Can't Stop
TTITLE24=Dolly Cooper - Big Rock Inn
TTITLE25=Donna Hightower - He's My Baby
TTITLE26=Dolores (Baby Dee) Spriggs - Zoom De De Ho Ho
TTITLE27=Carmen Taylor - No More, No Less
TTITLE28=Bernice Gooden - Penny, Nickel, Dime, Quarter
TTITLE29=Lady Nell - Don't Forget
TTITLE30=LaVern Baker - Voodoo Voodoo
TTITLE31=Ella Johnson - They Don't Want Me To Rock No More
EXTD=
EXTT0=
EXTT1=
EXTT2=
EXTT3=
EXTT4=
EXTT5=
EXTT6=
EXTT7=
EXTT8=
EXTT9=
EXTT10=
EXTT11=
EXTT12=
EXTT13=
EXTT14=
EXTT15=
EXTT16=
EXTT17=
EXTT18=
EXTT19=
EXTT20=
EXTT21=
EXTT22=
EXTT23=
EXTT24=
EXTT25=
EXTT26=
EXTT27=
EXTT28=
EXTT29=
EXTT30=
EXTT31=
PLAYORDER=
